<svg id="Layer_1" data-name="Layer 1" xmlns="http://www.w3.org/2000/svg" xmlns:xlink="http://www.w3.org/1999/xlink" viewBox="0 0 1920 1140.11"><defs><style>.cls-1{fill:#c4c4c4;}.cls-2,.cls-7{fill:none;}.cls-3{clip-path:url(#clip-path);}.cls-4{mask:url(#mask);}.cls-5{fill:url(#linear-gradient);}.cls-6{opacity:0.2;}.cls-7{stroke:#fdfdfd;}</style><clipPath id="clip-path"><rect class="cls-2" y="-0.18" width="1920" height="1140.11"/></clipPath><mask id="mask" x="-435" y="-207.18" width="2791" height="1347.11" maskUnits="userSpaceOnUse"><g id="mask0_32_1202" data-name="mask0 32 1202"><ellipse class="cls-1" cx="960.5" cy="465.82" rx="1395.5" ry="673"/></g></mask><linearGradient id="linear-gradient" x1="2045.82" y1="865.99" x2="-102.73" y2="-51.72" gradientTransform="matrix(1, 0, 0, -1, -56, 996)" gradientUnits="userSpaceOnUse"><stop offset="0" stop-color="#57c7f2"/><stop offset="1" stop-color="#079ad5"/></linearGradient></defs><g class="cls-3"><g class="cls-4"><rect class="cls-5" y="-0.18" width="1920" height="1140.11"/><g class="cls-6"><path class="cls-7" d="M553.56,1110.72c-39.47-114.91-246.87-353-760.69-386"/><path class="cls-7" d="M1072.53,1062.76c-8.39-121.22-147.1-404.86-634.88-569.7"/><path class="cls-7" d="M379.69,1113C340.22,998.05,132.82,760-381,727"/><path class="cls-7" d="M904,1019.93c-8.38-121.22-147.09-404.86-634.87-569.7"/><path class="cls-7" d="M688.46,1045.52C641,902.87,423.91,628.08-64.73,670.05"/><path class="cls-7" d="M1219.7,1034.69C1210.78,884.62,1072.21,563,589.35,477.07"/></g></g></g></svg>