<svg id="Layer_1" data-name="Layer 1" xmlns="http://www.w3.org/2000/svg" xmlns:xlink="http://www.w3.org/1999/xlink" viewBox="0 0 1920 1143"><defs><style>.cls-1,.cls-6{fill:none;}.cls-2{clip-path:url(#clip-path);}.cls-3{clip-path:url(#clip-path-2);}.cls-4{fill:url(#linear-gradient);}.cls-5{opacity:0.2;}.cls-6{stroke:#fdfdfd;}</style><clipPath id="clip-path"><rect class="cls-1" width="1920" height="1143"/></clipPath><clipPath id="clip-path-2"><ellipse class="cls-1" cx="960.23" cy="470" rx="1395.5" ry="673"/></clipPath><linearGradient id="linear-gradient" x1="-7.23" y1="1130.07" x2="1927.7" y2="12.93" gradientUnits="userSpaceOnUse"><stop offset="0" stop-color="#079ad5"/><stop offset="1" stop-color="#57c7f2"/></linearGradient></defs><g class="cls-2"><g class="cls-3"><rect class="cls-4" x="0.23" width="1920" height="1143"/><g class="cls-5"><path class="cls-6" d="M543.15,1107.52c-39.47-114.91-246.87-353-760.69-386"/><path class="cls-6" d="M1062.12,1059.56C1053.73,938.34,915,654.7,427.24,489.86"/><path class="cls-6" d="M369.28,1109.77c-39.47-114.92-246.87-353-760.69-386"/><path class="cls-6" d="M893.58,1016.73C885.2,895.51,746.49,611.87,258.71,447"/><path class="cls-6" d="M678.05,1042.32C630.58,899.67,413.49,624.88-75.15,666.85"/><path class="cls-6" d="M1209.29,1031.49c-8.92-150.07-147.49-471.69-630.35-557.62"/></g></g></g></svg>