<svg xmlns="http://www.w3.org/2000/svg" xmlns:xlink="http://www.w3.org/1999/xlink" viewBox="0 0 15.99 23"><defs><style>.cls-1{fill:none;}.cls-2{clip-path:url(#clip-path);}.cls-3{fill:#fff;fill-rule:evenodd;}</style><clipPath id="clip-path" transform="translate(0 0)"><rect class="cls-1" width="16" height="23"/></clipPath></defs><g id="Layer_2" data-name="Layer 2"><g id="Layer_1-2" data-name="Layer 1"><g class="cls-2"><path class="cls-3" d="M14.64,12.32c0-.06.08-.13.14-.21l.27-.47A8.19,8.19,0,0,0,16,7.86V7a.33.33,0,0,0,0-.14V6.56a.13.13,0,0,0,0-.12V6.33a.48.48,0,0,0,0-.17V5.9a.28.28,0,0,0,0-.13.33.33,0,0,0,0-.18l-.06-.11V5.39a1.87,1.87,0,0,0-.29-.2V5.11a.14.14,0,0,0,0-.09l-.07-.2V4.65s-.06-.14-.08-.21l0-.08V4.3L15.26,4V4c0-.09-.09-.18-.16-.29v0a1.67,1.67,0,0,0-.18-.28L14.53,3l-.21-.26L14,2.45a2.23,2.23,0,0,0-.26-.27A7.91,7.91,0,0,0,11.12.52,8.1,8.1,0,0,0,8,0C3.29,0,0,3.21,0,7.8a8.17,8.17,0,0,0,1.08,4.06l.11.22.21.31.05.08,5.14,8.42L7.8,22.83a.25.25,0,0,0,.13.12A.34.34,0,0,0,8.1,23,.41.41,0,0,0,8.28,23a.37.37,0,0,0,.13-.12l1.16-1.94,5-8.39ZM12.48,7.89v.72a.74.74,0,0,1,0,.14,1,1,0,0,1-.07.2v.1a.36.36,0,0,1,0,.11l-.12.23v.07a.2.2,0,0,1,0,.08,1.69,1.69,0,0,1-.17.29L12,9.9a3,3,0,0,1-.22.28v.05l-.29.3a4.63,4.63,0,0,1-3.18,1.32h0a4.56,4.56,0,0,1-3.09-1.3A4.31,4.31,0,0,1,5,4.48,4.59,4.59,0,0,1,8,3H8a4.41,4.41,0,0,1,1.72.35,4.32,4.32,0,0,1,1.45,1,2.44,2.44,0,0,1,.27.29l.23.29V5l.19.31,0,.08c.06.11.1.18.14.27s0,.07,0,.11v.1l.07.2a.21.21,0,0,0,0,.15v.1l.05.16v.21l.23.15V7.89Z" transform="translate(0 0)"/></g></g></g></svg>