<svg xmlns="http://www.w3.org/2000/svg" viewBox="0 0 35.38 35.38"><defs><style>.cls-1{opacity:0.8;}.cls-2{fill:#fff;}</style></defs><g id="Layer_2" data-name="Layer 2"><g id="Layer_1-2" data-name="Layer 1"><g class="cls-1"><path class="cls-2" d="M21.83,9.25H13.55a4.28,4.28,0,0,0-4.28,4.28v8.28a4.28,4.28,0,0,0,4.28,4.28h8.28a4.27,4.27,0,0,0,4.28-4.28V13.53A4.28,4.28,0,0,0,21.83,9.25Zm1.05,8.43a5.11,5.11,0,1,1-5.1-5.12,5.1,5.1,0,0,1,5.1,5.12Zm1.52-5.46a1.22,1.22,0,0,1-2.44,0A1.22,1.22,0,0,1,23.18,11h0a1.21,1.21,0,0,1,1.21,1.21Zm-6.64,2.16a3.28,3.28,0,1,0,3.29,3.29v0A3.28,3.28,0,0,0,17.76,14.38Z"/><path class="cls-2" d="M17.69,0A17.69,17.69,0,1,0,35.38,17.69,17.69,17.69,0,0,0,17.69,0ZM28.06,21.81A6.22,6.22,0,0,1,21.83,28H13.55a6.24,6.24,0,0,1-6.23-6.23V13.53a6.25,6.25,0,0,1,6.23-6.24h8.28a6.24,6.24,0,0,1,6.23,6.24Z"/></g></g></g></svg>