<svg xmlns="http://www.w3.org/2000/svg" viewBox="0 0 1393.71 363.82"><defs><style>.cls-1,.cls-2,.cls-3,.cls-5,.cls-6{fill:#fff;}.cls-1{opacity:0.3;}.cls-2{opacity:0.5;}.cls-4{fill:#0a9bd8;}.cls-5{font-size:86px;letter-spacing:0.04em;}.cls-5,.cls-6{font-family:Montserrat-Medium, Montserrat;font-weight:500;}.cls-6{font-size:255px;letter-spacing:0.06em;}</style></defs><g id="Layer_2" data-name="Layer 2"><g id="Layer_1-2" data-name="Layer 1"><path class="cls-1" d="M248.15,36.05H97.29A21.73,21.73,0,0,0,78.44,47L2.88,178.78a21.69,21.69,0,0,0,0,21.6L78.44,332.19a21.71,21.71,0,0,0,18.85,10.92H248.15A21.71,21.71,0,0,0,267,332.19l75.56-131.81a21.69,21.69,0,0,0,0-21.6L267,47A21.73,21.73,0,0,0,248.15,36.05Z"/><path class="cls-2" d="M27.72,240l94.8,95.46a21.9,21.9,0,0,0,21.27,5.72l129.34-34.9a21.91,21.91,0,0,0,15.48-15.53l34.74-130.56a21.94,21.94,0,0,0-5.63-21.09l-94.8-95.46A21.93,21.93,0,0,0,201.65,38L72.31,72.85A21.9,21.9,0,0,0,56.83,88.39L22.09,218.94A21.94,21.94,0,0,0,27.72,240Z"/><path class="cls-3" d="M297.18,248.82V130.34a22.82,22.82,0,0,0-11.35-19.72L184.18,51.52a22.8,22.8,0,0,0-22.92,0L59.61,110.62a22.82,22.82,0,0,0-11.35,19.72V248.82a22.79,22.79,0,0,0,11.35,19.72l101.65,59.1a22.8,22.8,0,0,0,22.92,0l101.65-59.1A22.79,22.79,0,0,0,297.18,248.82Z"/><path class="cls-4" d="M195.83,175.17a35.41,35.41,0,1,0-46.22,0A58.14,58.14,0,0,0,115,228.42v.22a10.63,10.63,0,0,0,5.26,9.18l47.17,27.43a10.51,10.51,0,0,0,10.54,0l47.17-27.43a10.63,10.63,0,0,0,5.26-9.18v-.22A58.14,58.14,0,0,0,195.83,175.17ZM172.72,126a22.16,22.16,0,1,1-22,22.16A22.08,22.08,0,0,1,172.72,126Zm44,99c0,2.73-1.45,3.62-3.79,5l-36.38,20.56a7.55,7.55,0,0,1-7.58,0L133.36,230c-2.34-1.36-3.79-2.25-3.79-5v-.15c0-23.09,20.22-41,43.15-41s44,17.91,44,41Z"/><text class="cls-5" transform="translate(394.73 341.54)">CDP &amp; CEM Platform</text><text class="cls-6" transform="translate(373.21 216.75)">MOBIO</text></g></g></svg>