<svg xmlns="http://www.w3.org/2000/svg" viewBox="0 0 1393.71 364.16"><defs><style>.cls-1,.cls-5{fill:#0a9bd8;}.cls-2{fill:#5acaf4;}.cls-3{fill:#fff;}.cls-4{font-size:86px;fill:#333;letter-spacing:0.04em;}.cls-4,.cls-5{font-family:Montserrat-Medium, Montserrat;font-weight:500;}.cls-5{font-size:255px;letter-spacing:0.06em;}</style></defs><g id="Layer_2" data-name="Layer 2"><g id="Layer_1-2" data-name="Layer 1"><path class="cls-1" d="M248.15,36.05H97.29A21.73,21.73,0,0,0,78.44,47L2.88,178.78a21.71,21.71,0,0,0,0,21.61L78.44,332.2a21.72,21.72,0,0,0,18.85,10.91H248.15A21.72,21.72,0,0,0,267,332.2l75.56-131.81a21.71,21.71,0,0,0,0-21.61L267,47A21.73,21.73,0,0,0,248.15,36.05Z"/><path class="cls-2" d="M27.72,240l94.8,95.47a21.93,21.93,0,0,0,21.27,5.72l129.34-34.9a21.94,21.94,0,0,0,15.48-15.54l34.74-130.55a22,22,0,0,0-5.63-21.1l-94.8-95.46A21.93,21.93,0,0,0,201.65,38L72.31,72.85A21.92,21.92,0,0,0,56.83,88.39L22.09,218.94A21.94,21.94,0,0,0,27.72,240Z"/><path class="cls-3" d="M297.18,248.83V130.34a22.79,22.79,0,0,0-11.35-19.71L184.18,51.52a22.8,22.8,0,0,0-22.92,0L59.61,110.63a22.79,22.79,0,0,0-11.35,19.71V248.83a22.79,22.79,0,0,0,11.35,19.71l101.65,59.1a22.8,22.8,0,0,0,22.92,0l101.65-59.1A22.79,22.79,0,0,0,297.18,248.83Z"/><path class="cls-1" d="M195.83,175.18a35.41,35.41,0,1,0-46.22,0A58.12,58.12,0,0,0,115,228.43v.21a10.63,10.63,0,0,0,5.26,9.19l47.17,27.43a10.51,10.51,0,0,0,10.54,0l47.17-27.43a10.63,10.63,0,0,0,5.26-9.19v-.21A58.12,58.12,0,0,0,195.83,175.18ZM172.72,126a22.15,22.15,0,1,1-22,22.15A22.07,22.07,0,0,1,172.72,126Zm44,99c0,2.72-1.45,3.61-3.79,5l-36.38,20.56a7.55,7.55,0,0,1-7.58,0L133.36,230c-2.34-1.36-3.79-2.25-3.79-5v-.16c0-23.09,20.22-41,43.15-41s44,17.91,44,41Z"/><text class="cls-4" transform="translate(394.73 341.55)">CDP &amp; CEM Platform</text><text class="cls-5" transform="translate(373.21 216.75)">MOBIO</text></g></g></svg>