<svg xmlns="http://www.w3.org/2000/svg" viewBox="0 0 1366.18 307.06"><defs><style>.cls-1,.cls-2,.cls-3{fill:#fff;}.cls-1{opacity:0.3;}.cls-2{opacity:0.5;}.cls-4{fill:#0a9bd8;}</style></defs><g id="Layer_2" data-name="Layer 2"><g id="Layer_1-2" data-name="Layer 1"><path class="cls-1" d="M248.15,0H97.29A21.71,21.71,0,0,0,78.44,10.92L2.88,142.73a21.69,21.69,0,0,0,0,21.6L78.44,296.14a21.73,21.73,0,0,0,18.85,10.92H248.15A21.73,21.73,0,0,0,267,296.14l75.56-131.81a21.69,21.69,0,0,0,0-21.6L267,10.92A21.71,21.71,0,0,0,248.15,0Z"/><path class="cls-2" d="M27.72,204l94.8,95.46a21.93,21.93,0,0,0,21.27,5.72l129.34-34.9a21.91,21.91,0,0,0,15.48-15.53l34.74-130.56a21.94,21.94,0,0,0-5.63-21.09L222.92,7.62A21.9,21.9,0,0,0,201.65,1.9L72.31,36.8A21.91,21.91,0,0,0,56.83,52.33L22.09,182.89A21.94,21.94,0,0,0,27.72,204Z"/><path class="cls-3" d="M297.18,212.77V94.29a22.79,22.79,0,0,0-11.35-19.72L184.18,15.47a22.8,22.8,0,0,0-22.92,0L59.61,74.57A22.79,22.79,0,0,0,48.26,94.29V212.77a22.82,22.82,0,0,0,11.35,19.72l101.65,59.1a22.8,22.8,0,0,0,22.92,0l101.65-59.1A22.82,22.82,0,0,0,297.18,212.77Z"/><path class="cls-4" d="M195.83,139.12a35.41,35.41,0,1,0-46.22,0A58.12,58.12,0,0,0,115,192.37v.21a10.63,10.63,0,0,0,5.26,9.19l47.17,27.43a10.51,10.51,0,0,0,10.54,0l47.17-27.43a10.63,10.63,0,0,0,5.26-9.19v-.21A58.12,58.12,0,0,0,195.83,139.12ZM172.72,90a22.16,22.16,0,1,1-22,22.15A22.08,22.08,0,0,1,172.72,90Zm44,99c0,2.73-1.45,3.62-3.79,5l-36.38,20.55a7.55,7.55,0,0,1-7.58,0L133.36,193.9c-2.34-1.36-3.79-2.25-3.79-5v-.15c0-23.1,20.22-41,43.15-41s44,17.9,44,41Z"/><path class="cls-3" d="M398.86,275.39c0-17.8,13.58-30.79,31.9-30.79,9.29,0,17.37,3.18,22.88,9.38l-5.59,5.41a22.31,22.31,0,0,0-16.94-7.13c-13.59,0-23.65,9.8-23.65,23.13s10.06,23.13,23.65,23.13a22.4,22.4,0,0,0,16.94-7.22l5.59,5.42c-5.51,6.19-13.59,9.46-23,9.46C412.44,306.18,398.86,293.19,398.86,275.39Z"/><path class="cls-3" d="M469,245.29h25.37c19.35,0,32.5,12.21,32.5,30.1s-13.15,30.1-32.5,30.1H469ZM493.8,298c14.88,0,24.42-9.12,24.42-22.62s-9.54-22.62-24.42-22.62H477.55V298Z"/><path class="cls-3" d="M591.58,266.27c0,13.08-9.46,21-25.11,21H551.59v18.23H543v-60.2h23.48C582.12,245.29,591.58,253.2,591.58,266.27Zm-8.6,0c0-8.6-5.76-13.5-16.77-13.5H551.59v27h14.62C577.22,279.78,583,274.87,583,266.27Z"/><path class="cls-3" d="M678.27,306.44l-8-8c-5.25,5.07-12.13,7.74-20.13,7.74-12.21,0-21.06-6.45-21.06-15.65,0-7.4,4.21-12.56,14.62-18.49-5.42-5.42-7.23-9.29-7.23-13.76,0-8.09,6.37-13.5,16.25-13.5,9.12,0,15,4.72,15,12.55,0,6.11-3.61,10.49-12.82,15.74l14.88,14.79a37.67,37.67,0,0,0,3.7-10.92l6.62,2.15a39.78,39.78,0,0,1-5.24,13.76l8.08,8.08Zm-12.9-12.82-17.12-17c-8.43,4.73-11.09,8.26-11.09,13.08,0,5.76,5.42,9.63,13.5,9.63A20.44,20.44,0,0,0,665.37,293.62ZM644.13,258.1c0,3.1,1.2,5.34,6.1,10.32,7.91-4.47,10.49-7.22,10.49-11,0-4-2.84-6.63-8-6.63C647.31,250.79,644.13,253.8,644.13,258.1Z"/><path class="cls-3" d="M717.48,275.39c0-17.8,13.59-30.79,31.91-30.79,9.29,0,17.37,3.18,22.87,9.38l-5.59,5.41a22.3,22.3,0,0,0-16.94-7.13c-13.59,0-23.65,9.8-23.65,23.13s10.06,23.13,23.65,23.13a22.38,22.38,0,0,0,16.94-7.22l5.59,5.42c-5.5,6.19-13.58,9.46-23,9.46C731.07,306.18,717.48,293.19,717.48,275.39Z"/><path class="cls-3" d="M831.26,298v7.48H787.57v-60.2h42.48v7.48H796.17v18.49h30.19v7.31H796.17V298Z"/><path class="cls-3" d="M904,305.49l-.08-43.86-21.76,36.55h-3.95l-21.76-36.29v43.6H848.2v-60.2h7l25.11,42.31,24.77-42.31h7l.09,60.2Z"/><path class="cls-3" d="M1008.07,266.27c0,13.08-9.46,21-25.11,21H968.08v18.23h-8.6v-60.2H983C998.61,245.29,1008.07,253.2,1008.07,266.27Zm-8.6,0c0-8.6-5.76-13.5-16.77-13.5H968.08v27H982.7C993.71,279.78,999.47,274.87,999.47,266.27Z"/><path class="cls-3" d="M1023.38,241.68h8.26v63.81h-8.26Z"/><path class="cls-3" d="M1086.5,278v27.52h-7.82v-6c-2.75,4.13-7.83,6.54-15,6.54-10.32,0-16.85-5.51-16.85-13.42,0-7.31,4.73-13.33,18.32-13.33h13.07v-1.63c0-7-4-11-12.21-11-5.42,0-10.93,1.89-14.45,4.9l-3.44-6.19c4.73-3.79,11.52-5.85,18.83-5.85C1079.45,259.48,1086.5,265.5,1086.5,278Zm-8.25,13.59v-6.37h-12.73c-8.17,0-10.49,3.19-10.49,7.06,0,4.55,3.78,7.39,10.06,7.39S1076.18,296.8,1078.25,291.56Z"/><path class="cls-3" d="M1130.45,302.82c-2.5,2.15-6.28,3.19-10,3.19-9.2,0-14.44-5.08-14.44-14.28v-25h-7.74v-6.79H1106v-10h8.25v10h13.07v6.79h-13.07v24.69c0,4.9,2.58,7.65,7.14,7.65a10.37,10.37,0,0,0,6.45-2.15Z"/><path class="cls-3" d="M1152.72,256v4H1166v6.79h-13.08v38.79h-8.25V266.7h-7.74v-6.79h7.74v-4c0-8.86,5.33-14.71,15-14.71,3.52,0,7,.86,9.29,2.67l-2.5,6.28a10.67,10.67,0,0,0-6.36-2.15C1155.22,248,1152.72,250.71,1152.72,256Z"/><path class="cls-3" d="M1172.59,282.7c0-13.59,10.06-23.22,23.73-23.22S1220,269.11,1220,282.7,1210,306,1196.32,306,1172.59,296.29,1172.59,282.7Zm39,0c0-9.72-6.54-16-15.31-16s-15.39,6.28-15.39,16,6.62,16.08,15.39,16.08S1211.63,292.42,1211.63,282.7Z"/><path class="cls-3" d="M1258.93,259.48v8a13.94,13.94,0,0,0-1.89-.09c-8.86,0-14.36,5.42-14.36,15.4v22.7h-8.26V259.91h7.91v7.65C1245.26,262.23,1250.93,259.48,1258.93,259.48Z"/><path class="cls-3" d="M1348.37,279.26v26.23h-8.26V280.21c0-8.95-4.3-13.33-11.78-13.33-8.25,0-13.67,5.24-13.67,15.13v23.48h-8.26V280.21c0-8.95-4.3-13.33-11.78-13.33-8.26,0-13.67,5.24-13.67,15.13v23.48h-8.26V259.91h7.91v6.79c3.27-4.64,8.86-7.22,15.74-7.22s12.81,2.75,15.82,8.43c3.44-5.16,9.81-8.43,17.55-8.43C1340.8,259.48,1348.37,265.84,1348.37,279.26Z"/><path class="cls-3" d="M565.48,180.69l-.25-130L500.71,159H489L424.47,51.41V180.69H400V2.19H420.9l74.46,125.46L568.8,2.19h20.91l.25,178.5Z"/><path class="cls-3" d="M644.27,91.44c0-52.28,40.29-91.29,95.12-91.29C793.7.15,834,38.91,834,91.44s-40.3,91.29-94.61,91.29C684.56,182.73,644.27,143.72,644.27,91.44Zm164.23,0c0-39.53-29.59-68.6-69.11-68.6-40,0-69.62,29.07-69.62,68.6S699.35,160,739.39,160C778.91,160,808.5,131,808.5,91.44Z"/><path class="cls-3" d="M1041.82,132.5c0,30.6-23.21,48.19-68.34,48.19H888.31V2.19h80.07c41,0,64,17.34,64,46.15,0,19.39-9.94,32.9-24,39.79C1028.56,93.74,1041.82,108.78,1041.82,132.5Zm-128-109.66V80h52.27c26,0,40.8-9.69,40.8-28.56s-14.79-28.57-40.8-28.57Zm102.25,107.62c0-20.66-15.3-29.84-43.6-29.84H913.81V160h58.65C1000.76,160,1016.06,151.11,1016.06,130.46Z"/><path class="cls-3" d="M1096.64,2.19h25.5v178.5h-25.5Z"/><path class="cls-3" d="M1176.45,91.44c0-52.28,40.29-91.29,95.12-91.29,54.32,0,94.61,38.76,94.61,91.29s-40.29,91.29-94.61,91.29C1216.74,182.73,1176.45,143.72,1176.45,91.44Zm164.23,0c0-39.53-29.59-68.6-69.11-68.6-40,0-69.62,29.07-69.62,68.6s29.58,68.6,69.62,68.6C1311.09,160,1340.68,131,1340.68,91.44Z"/></g></g></svg>