<svg xmlns="http://www.w3.org/2000/svg" viewBox="0 0 49 49"><defs><style>.cls-1{fill:#e7f2ef;}.cls-2{fill:#51a690;}</style></defs><g id="Layer_2" data-name="Layer 2"><g id="Layer_1-2" data-name="Layer 1"><rect class="cls-1" width="49" height="49" rx="10"/><path class="cls-2" d="M14.71,25.05,18,27.43l-1.24,3.84a3,3,0,0,0,4.58,3.3l3.19-2.35,3.19,2.34a3,3,0,0,0,4.57-3.29L31,27.43l3.27-2.38a3,3,0,0,0-1.75-5.35h-4l-1.21-3.8A3,3,0,0,0,23.59,14a2.94,2.94,0,0,0-1.91,1.91l-1.22,3.8h-4a3,3,0,0,0-1.75,5.35Z"/></g></g></svg>