<svg xmlns="http://www.w3.org/2000/svg" viewBox="0 0 49 49"><defs><style>.cls-1{fill:#ffe7db;}.cls-2{fill:#fead86;}</style></defs><g id="Layer_2" data-name="Layer 2"><g id="Layer_1-2" data-name="Layer 1"><rect class="cls-1" width="49" height="49" rx="10"/><path class="cls-2" d="M24.5,19a2.75,2.75,0,0,0-2.75,2.75v11a2.75,2.75,0,0,0,5.5,0v-11A2.75,2.75,0,0,0,24.5,19Z"/><path class="cls-2" d="M32.75,13.5A2.75,2.75,0,0,0,30,16.25v16.5a2.75,2.75,0,0,0,5.5,0V16.25A2.75,2.75,0,0,0,32.75,13.5Z"/><path class="cls-2" d="M16.25,24.5a2.75,2.75,0,0,0-2.75,2.75v5.5a2.75,2.75,0,0,0,5.5,0v-5.5A2.75,2.75,0,0,0,16.25,24.5Z"/></g></g></svg>