<svg xmlns="http://www.w3.org/2000/svg" viewBox="0 0 49 49"><defs><style>.cls-1{fill:#faf3d8;}.cls-2{fill:#ffcf00;}</style></defs><g id="Layer_2" data-name="Layer 2"><g id="Layer_1-2" data-name="Layer 1"><rect class="cls-1" width="49" height="49" rx="10"/><circle class="cls-2" cx="23.62" cy="19.5" r="5"/><path class="cls-2" d="M23.62,26.17a7.51,7.51,0,0,0-7.5,7.5.83.83,0,0,0,.83.83H30.29a.83.83,0,0,0,.83-.83A7.51,7.51,0,0,0,23.62,26.17Z"/><path class="cls-2" d="M34.45,21.06a1.75,1.75,0,0,0-1.66,1.84,1.68,1.68,0,1,0-3.34,0c0,1.44,1.88,3.13,2.82,3.88a.83.83,0,0,0,1,0c.94-.75,2.82-2.44,2.82-3.88A1.76,1.76,0,0,0,34.45,21.06Z"/></g></g></svg>