<svg xmlns="http://www.w3.org/2000/svg" viewBox="0 0 35.38 35.38"><defs><style>.cls-1{fill:#fff;opacity:0.8;}</style></defs><g id="Layer_2" data-name="Layer 2"><g id="Layer_1-2" data-name="Layer 1"><path class="cls-1" d="M17.69,0A17.69,17.69,0,1,0,35.38,17.69,17.69,17.69,0,0,0,17.69,0Zm9.75,12a7.84,7.84,0,0,1-1.51,1.48c-.09.06-.23.13-.23.26a11.91,11.91,0,0,1-3.14,8.67,11.7,11.7,0,0,1-11.33,2.65A11,11,0,0,1,9,24.19c-.23-.13-.45-.26-.68-.41,0-.05-.1-.12,0-.12h.26a7.63,7.63,0,0,0,3.28-.42A5.07,5.07,0,0,0,14,22.1L13.56,22A4.25,4.25,0,0,1,10.4,19.4c0-.14,0-.14.11-.14a4.78,4.78,0,0,0,1.51,0,4.91,4.91,0,0,1-.51-.15A4.1,4.1,0,0,1,9,15.86a3.53,3.53,0,0,1,0-.46c0-.1,0-.14.12-.05a4.12,4.12,0,0,0,1.53.43c-.17-.13-.33-.28-.49-.43a4,4,0,0,1-.68-4.76c.07-.11.12-.11.22,0a12.39,12.39,0,0,0,8,4c.08,0,.08,0,.08-.1a3.92,3.92,0,0,1,.82-3.23,4.42,4.42,0,0,1,1.32-1.08,4.07,4.07,0,0,1,1.63-.46,4,4,0,0,1,1.72.28,3.88,3.88,0,0,1,1.12.8l.2.2a.15.15,0,0,0,.16,0A9.94,9.94,0,0,0,27,10.05a.11.11,0,0,1,.11,0,.07.07,0,0,1,0,.1,3.3,3.3,0,0,1-.65,1.19c-.22.22-.68.79-1,.85a8.61,8.61,0,0,0,2-.56l.05,0s0,0,0,.1A.42.42,0,0,1,27.44,12Z"/></g></g></svg>