<svg xmlns="http://www.w3.org/2000/svg" viewBox="0 0 246 246"><defs><style>.cls-1{fill:#fff;}</style></defs><g id="Layer_2" data-name="Layer 2"><g id="Layer_1-2" data-name="Layer 1"><path class="cls-1" d="M132.73,162a1.36,1.36,0,0,1-1.32-1.57l2.47-15.29a1.38,1.38,0,0,0-1.27-1.66l-14.44-.34a6.55,6.55,0,0,0-6.1,4l-10.76,24.1a2.35,2.35,0,0,0,.12,2.14l2.52,4.28a.76.76,0,0,1-.09.91h8.91L121,162h17.1Zm0,0a1.36,1.36,0,0,1-1.32-1.57l2.47-15.29a1.38,1.38,0,0,0-1.27-1.66l-14.44-.34a6.55,6.55,0,0,0-6.1,4l-10.76,24.1a2.35,2.35,0,0,0,.12,2.14l2.52,4.28a.76.76,0,0,1-.09.91h8.91L121,162h17.1ZM123,0A123,123,0,1,0,246,123,123,123,0,0,0,123,0Zm38.24,97A1.89,1.89,0,1,1,165,97v9a8.83,8.83,0,0,0-2.74-.44h-1Zm.43,10.39a4.65,4.65,0,0,1,2.74.89,3.86,3.86,0,0,1,.58.49,4.7,4.7,0,0,1-3.32,8H142.11a4.75,4.75,0,0,1-2.24-.57l-6-3.19a1.87,1.87,0,0,0-2.72,1.28l-2.72,13.8h-7.34s3.29-10.78,4-16.89c.09-.88.14-1.61.22-2.36l.07-.57a10.68,10.68,0,0,0-.2-5.36h0v0a14.81,14.81,0,0,0,2.81-1l.1,0c2.86-1.42,3.58-3.14,3.58-3.14l9.31,6.94a9,9,0,0,0,5.36,1.77ZM113.34,79a10.37,10.37,0,0,1,20.73-.63h9.08a2.17,2.17,0,0,1,2.17,2.17,2.19,2.19,0,0,1-2.17,2.18h-9.06v2.35a10.34,10.34,0,0,1-1.71,5.71,11.06,11.06,0,0,0-9.81-6h-9.23ZM93.41,88.85a6.83,6.83,0,0,1,4.87-2h25.23a6.88,6.88,0,0,1,6.59,4.9,6.56,6.56,0,0,1,.27,1.48,4.24,4.24,0,0,1,0,.51,6.79,6.79,0,0,1-1.68,4.49,4.33,4.33,0,0,1-.34.38,6.92,6.92,0,0,1-1.42,1.1,6.79,6.79,0,0,1-2.52.86,2.42,2.42,0,0,1-.47,0,10.46,10.46,0,0,0-8.17-3.88h-16a10.42,10.42,0,0,0-6.21,2,6.85,6.85,0,0,1-.16-9.89ZM88.24,125l5.11-21.11a6.54,6.54,0,0,1,.86-2A6.89,6.89,0,0,1,100,98.7h16.64a6.82,6.82,0,0,1,3.08.72,6.75,6.75,0,0,1,3.65,7.51l-.21,1v0l-4.27,19.28v0l-.18.83a6.91,6.91,0,0,1-.57,1.58h0a6.41,6.41,0,0,1-1.09,1.54,6.92,6.92,0,0,1-5.07,2.2H94.93A6.8,6.8,0,0,1,88.24,125Zm82.28,41h-47l-8.24,16.51H75.48a2,2,0,1,1,0-4h13.1a1.17,1.17,0,0,1-.39-1.24l11.89-41.13h10.79a10.75,10.75,0,0,0,9.52-6.08,2.2,2.2,0,0,0,.21-.44h9.68l1.2.44,14.15,5.2a1.6,1.6,0,0,1,.94,2l-5,16.48,4.18,6.8a1,1,0,0,1-.55,1.48h16.09v-43.5h1a8,8,0,0,0,2.74-.47v44h5.5a2,2,0,0,1,0,4Zm-39.11-5.61,2.47-15.29a1.38,1.38,0,0,0-1.27-1.66l-14.44-.34a6.55,6.55,0,0,0-6.1,4l-10.76,24.1a2.35,2.35,0,0,0,.12,2.14l2.52,4.28a.76.76,0,0,1-.09.91h8.91L121,162h17.1l-5.38,0A1.36,1.36,0,0,1,131.41,160.41Zm1.32,1.57a1.36,1.36,0,0,1-1.32-1.57l2.47-15.29a1.38,1.38,0,0,0-1.27-1.66l-14.44-.34a6.55,6.55,0,0,0-6.1,4l-10.76,24.1a2.35,2.35,0,0,0,.12,2.14l2.52,4.28a.76.76,0,0,1-.09.91h8.91L121,162h17.1Zm0,0a1.36,1.36,0,0,1-1.32-1.57l2.47-15.29a1.38,1.38,0,0,0-1.27-1.66l-14.44-.34a6.55,6.55,0,0,0-6.1,4l-10.76,24.1a2.35,2.35,0,0,0,.12,2.14l2.52,4.28a.76.76,0,0,1-.09.91h8.91L121,162h17.1Z"/></g></g></svg>