<svg xmlns="http://www.w3.org/2000/svg" viewBox="0 0 49 49"><defs><style>.cls-1{fill:#ffe7db;}.cls-2{fill:#fead86;}</style></defs><g id="Layer_2" data-name="Layer 2"><g id="Layer_1-2" data-name="Layer 1"><rect class="cls-1" width="49" height="49" rx="10"/><path class="cls-2" d="M27.36,24.1a5.6,5.6,0,0,1-1.82.66V36.84a5.1,5.1,0,0,0,1.55-.58l6.25-3.6a5.2,5.2,0,0,0,2.59-4.49V21a5.07,5.07,0,0,0-.27-1.63Z"/><path class="cls-2" d="M22.68,22.31a3.66,3.66,0,0,0,3.65,0l8.29-4.78a5.28,5.28,0,0,0-1.28-1.07l-6.25-3.61a5.21,5.21,0,0,0-5.18,0l-6.25,3.61a5.13,5.13,0,0,0-1.25,1Z"/><path class="cls-2" d="M23.46,24.76a5.6,5.6,0,0,1-1.82-.66l-8.28-4.83A5.07,5.07,0,0,0,13.07,21v7.22a5.2,5.2,0,0,0,2.59,4.49l6.25,3.6a5.1,5.1,0,0,0,1.55.58Z"/></g></g></svg>