<svg xmlns="http://www.w3.org/2000/svg" viewBox="0 0 49 49"><defs><style>.cls-1{fill:#faf3d8;}.cls-2{fill:#ffcf00;}</style></defs><g id="Layer_2" data-name="Layer 2"><g id="Layer_1-2" data-name="Layer 1"><rect class="cls-1" width="49" height="49" rx="10"/><path class="cls-2" d="M31.65,20.15a1.09,1.09,0,0,1-.71-.72h0a7.62,7.62,0,1,0-14.62,4.32,5.3,5.3,0,0,0,.23.67,1,1,0,0,1-.3,1.18,5.27,5.27,0,0,0-2.06,5A5.34,5.34,0,0,0,19.55,35h7.92V27.81L26.24,29a1,1,0,0,1-1.34-1.35l1.51-1.51a2.85,2.85,0,0,1,4,0L32,27.69A1,1,0,0,1,32,29a.94.94,0,0,1-1.34,0l0,0-1.23-1.23V35a7.79,7.79,0,0,0,7.59-7A7.57,7.57,0,0,0,31.65,20.15Z"/></g></g></svg>