<svg xmlns="http://www.w3.org/2000/svg" viewBox="0 0 49 49"><defs><style>.cls-1{fill:#e7f2ef;}.cls-2{fill:#51a690;}</style></defs><g id="Layer_2" data-name="Layer 2"><g id="Layer_1-2" data-name="Layer 1"><rect class="cls-1" width="49" height="49" rx="10"/><path class="cls-2" d="M35.55,27.09a1.89,1.89,0,0,0-1.65-.68,10,10,0,0,0-8.44,5.69V26.32a5.76,5.76,0,0,0,4.79-5.67c0-2.67-1.86-4.93-3.68-6.79a2.52,2.52,0,0,0-.35-.3,16.19,16.19,0,0,0-1.72,7.06,1,1,0,0,1-1.92.06A17.84,17.84,0,0,1,24.35,13a2.87,2.87,0,0,0-1.91.84c-1.83,1.86-3.69,4.12-3.69,6.79a5.76,5.76,0,0,0,4.79,5.67V32.1a10,10,0,0,0-8.44-5.69,1.92,1.92,0,0,0-2,2.4c2,7,11,7.17,11.42,7.17h0c.38,0,9.46-.14,11.42-7.17A1.91,1.91,0,0,0,35.55,27.09Z"/></g></g></svg>