<svg xmlns="http://www.w3.org/2000/svg" viewBox="0 0 49 49"><defs><style>.cls-1{fill:#dae6ff;}.cls-2{fill:#6e9cfd;}</style></defs><g id="Layer_2" data-name="Layer 2"><g id="Layer_1-2" data-name="Layer 1"><rect class="cls-1" width="49" height="49" rx="10"/><path class="cls-2" d="M15.36,25.91a2.57,2.57,0,0,1-.26-2.39,7,7,0,0,1,3.38-3.28,9.68,9.68,0,0,1,3.4-1c-.51.63-1,1.31-1.55,2a30.93,30.93,0,0,0-2.69,5.05l-.31.71A2.66,2.66,0,0,1,15.36,25.91Zm1.21,3.7A9.8,9.8,0,0,0,15,33.11a1.53,1.53,0,0,0,1.15,1.82,1.56,1.56,0,0,0,.68,0,9.91,9.91,0,0,0,3.49-1.61h0a2.63,2.63,0,1,0-3.72-3.71Zm6.94,2.6-.72.32v.26a2.33,2.33,0,0,0,.69,1.64,2.25,2.25,0,0,0,1.55.63c2.07,0,3.74-1.91,4.62-3.65a10,10,0,0,0,1-3.46c-.64.52-1.33,1.05-2.07,1.57a29.38,29.38,0,0,1-5,2.69ZM35.92,16.55c-.12,3.81-2.86,7.59-8.39,11.55a29,29,0,0,1-4.74,2.51v-.49a3.07,3.07,0,0,0-3.06-3.06h-.49a30.3,30.3,0,0,1,2.52-4.74c3.95-5.51,7.72-8.26,11.52-8.38C35.18,13.94,35.92,14.71,35.92,16.55Zm-5.25,4.82a2.19,2.19,0,1,0-2.19,2.19A2.19,2.19,0,0,0,30.67,21.37Z"/></g></g></svg>