<svg xmlns="http://www.w3.org/2000/svg" viewBox="0 0 35.38 35.38"><defs><style>.cls-1{opacity:0.8;}.cls-2{fill:#fff;}</style></defs><g id="Layer_2" data-name="Layer 2"><g id="Layer_1-2" data-name="Layer 1"><g class="cls-1"><path class="cls-2" d="M20.77,18.07,15.9,20.48c-.19.1-.84,0-.84-.25v-5c0-.22.66-.36.85-.25l4.66,2.54C20.77,17.68,21,18,20.77,18.07Z"/><path class="cls-2" d="M17.69,0A17.69,17.69,0,1,0,35.38,17.69,17.69,17.69,0,0,0,17.69,0Zm9.47,20.22a4.25,4.25,0,0,1-4.25,4.25H12.05A4.25,4.25,0,0,1,7.8,20.22V15.16a4.24,4.24,0,0,1,4.25-4.24H22.92a4.24,4.24,0,0,1,4.24,4.24Z"/></g></g></g></svg>