<svg xmlns="http://www.w3.org/2000/svg" viewBox="0 0 49 49"><defs><style>.cls-1{fill:#dae6ff;}.cls-2{fill:#6e9cfd;}</style></defs><g id="Layer_2" data-name="Layer 2"><g id="Layer_1-2" data-name="Layer 1"><rect class="cls-1" width="49" height="49" rx="10"/><path class="cls-2" d="M35.31,17.9a2.9,2.9,0,0,0-2.26-1.06H17.17l0-.35a3,3,0,0,0-2.93-2.6H14a1,1,0,0,0,0,2h.22a1,1,0,0,1,1,.86l1.35,11.5a4.92,4.92,0,0,0,4.88,4.34H31.67a1,1,0,0,0,0-2H21.41a2.93,2.93,0,0,1-2.77-2H30.35a4.91,4.91,0,0,0,4.83-4L36,20.31A2.92,2.92,0,0,0,35.31,17.9Z"/><circle class="cls-2" cx="19.88" cy="35.5" r="1.96"/><circle class="cls-2" cx="29.7" cy="35.5" r="1.96"/></g></g></svg>