<svg xmlns="http://www.w3.org/2000/svg" viewBox="0 0 49 49"><defs><style>.cls-1{fill:#dae6ff;}.cls-2{fill:#6e9cfd;}</style></defs><g id="Layer_2" data-name="Layer 2"><g id="Layer_1-2" data-name="Layer 1"><rect class="cls-1" width="49" height="49" rx="10"/><path class="cls-2" d="M24.5,27.24A2.75,2.75,0,0,0,21.75,30v5.5h5.5V30A2.75,2.75,0,0,0,24.5,27.24Z"/><path class="cls-2" d="M29.08,30v5.5h3.67a2.75,2.75,0,0,0,2.75-2.75V24.38A1.79,1.79,0,0,0,35,23.11l-7.79-8.42A3.67,3.67,0,0,0,22,14.48a2,2,0,0,0-.2.21L14,23.1a1.86,1.86,0,0,0-.53,1.3v8.34a2.75,2.75,0,0,0,2.75,2.75h3.67V30a4.58,4.58,0,1,1,9.16,0Z"/><path class="cls-2" d="M24.5,27.24A2.75,2.75,0,0,0,21.75,30v5.5h5.5V30A2.75,2.75,0,0,0,24.5,27.24Z"/></g></g></svg>