<svg xmlns="http://www.w3.org/2000/svg" viewBox="0 0 49 49"><defs><style>.cls-1{fill:#dae6ff;}.cls-2{fill:#6e9cfd;}</style></defs><g id="Layer_2" data-name="Layer 2"><g id="Layer_1-2" data-name="Layer 1"><rect class="cls-1" width="49" height="49" rx="10"/><path class="cls-2" d="M32.3,33.33V14.39a1.06,1.06,0,0,0-2.11,0c0,3.1-2.71,4.21-5.26,4.21H17.57a4.21,4.21,0,0,0-4.21,4.21v2.1a4.21,4.21,0,0,0,4.21,4.21h7.36c2.55,0,5.26,1.1,5.26,4.21a1.06,1.06,0,0,0,2.11,0Z"/><path class="cls-2" d="M21.85,31.21a1.48,1.48,0,0,0-1.33-.85H17.05a6.46,6.46,0,0,1-1.45-.17l2.63,5.87a2.82,2.82,0,0,0,2.57,1.67,2.58,2.58,0,0,0,2.58-2.6,2.79,2.79,0,0,0-.22-1.06Z"/><rect class="cls-2" x="33.51" y="18.88" width="2.68" height="9.96" rx="1.34" transform="translate(69.7 47.72) rotate(180)"/><circle class="cls-1" cx="20.88" cy="35.2" r="0.82"/><circle class="cls-1" cx="16.05" cy="21.28" r="0.82"/></g></g></svg>