<svg xmlns="http://www.w3.org/2000/svg" viewBox="0 0 49 49"><defs><style>.cls-1{fill:#dae6ff;}.cls-2{fill:#6e9cfd;}</style></defs><g id="Layer_2" data-name="Layer 2"><g id="Layer_1-2" data-name="Layer 1"><rect class="cls-1" width="49" height="49" rx="10"/><path class="cls-2" d="M33.13,17.74H30.26a5.76,5.76,0,0,0-11.51,0H15.87A2.88,2.88,0,0,0,13,20.62v9.59A4.8,4.8,0,0,0,17.79,35H31.21A4.79,4.79,0,0,0,36,30.21V20.62A2.87,2.87,0,0,0,33.13,17.74Zm-13.3,3.19a1,1,0,1,1,1-1A1,1,0,0,1,19.83,20.93Zm.84-3.19a3.84,3.84,0,0,1,7.67,0Zm8.7,3.19a1,1,0,1,1,1-1A1,1,0,0,1,29.37,20.93Z"/></g></g></svg>