<svg xmlns="http://www.w3.org/2000/svg" viewBox="0 0 49 49"><defs><style>.cls-1{fill:#ceedff;}.cls-2{fill:#4dbcfe;}</style></defs><g id="Layer_2" data-name="Layer 2"><g id="Layer_1-2" data-name="Layer 1"><rect class="cls-1" width="49" height="49" rx="10"/><path class="cls-2" d="M22.67,34.58a.92.92,0,0,1-.92.92H14.42a.92.92,0,1,1,0-1.83h7.33A.92.92,0,0,1,22.67,34.58Z"/><path class="cls-2" d="M14.42,31.83h5.5a.92.92,0,0,0,0-1.83h-5.5a.92.92,0,1,0,0,1.83Z"/><path class="cls-2" d="M14.42,28.17h3.66a.92.92,0,0,0,0-1.84H14.42a.92.92,0,1,0,0,1.84Z"/><path class="cls-2" d="M24.5,13.5a11,11,0,0,0-11,11c0,.06,0,.11,0,.17a2.58,2.58,0,0,1,.91-.17h3.66a2.73,2.73,0,0,1,2.75,2.73,2.64,2.64,0,0,1-.2,1,2.74,2.74,0,0,1,1.95,3.33,2,2,0,0,1-.12.34,2.71,2.71,0,0,1,2,3.29,2,2,0,0,1-.09.26h.17a11,11,0,0,0,0-22Zm3.4,14.4a.92.92,0,0,1-1.3,0l-2.75-2.75a.93.93,0,0,1-.27-.65V19.92a.92.92,0,0,1,1.84,0v4.2L27.9,26.6a.92.92,0,0,1,0,1.3Z"/></g></g></svg>