<svg xmlns="http://www.w3.org/2000/svg" viewBox="0 0 49 49"><defs><style>.cls-1{fill:#dae6ff;}.cls-2{fill:#6e9cfd;}</style></defs><g id="Layer_2" data-name="Layer 2"><g id="Layer_1-2" data-name="Layer 1"><rect class="cls-1" width="49" height="49" rx="10"/><path class="cls-2" d="M18.08,13.5h2.75a3.67,3.67,0,0,1,3.67,3.67v2.75a3.66,3.66,0,0,1-3.67,3.66H18.08a3.66,3.66,0,0,1-3.66-3.66V17.17A3.66,3.66,0,0,1,18.08,13.5Z"/><path class="cls-2" d="M18.08,25.42h2.75a3.66,3.66,0,0,1,3.67,3.66v2.75a3.67,3.67,0,0,1-3.67,3.67H18.08a3.66,3.66,0,0,1-3.66-3.67V29.08A3.66,3.66,0,0,1,18.08,25.42Z"/><path class="cls-2" d="M30,25.42h2.75a3.66,3.66,0,0,1,3.67,3.66v2.75a3.67,3.67,0,0,1-3.67,3.67H30a3.67,3.67,0,0,1-3.67-3.67V29.08A3.66,3.66,0,0,1,30,25.42Z"/><path class="cls-2" d="M27.25,19.92H30v2.75a.92.92,0,0,0,1.83,0V19.92h2.75a.92.92,0,0,0,0-1.84H31.83V15.33a.92.92,0,0,0-1.83,0v2.75H27.25a.92.92,0,0,0,0,1.84Z"/></g></g></svg>