<svg xmlns="http://www.w3.org/2000/svg" viewBox="0 0 49 49"><defs><style>.cls-1{fill:#ceedff;}.cls-2{fill:#4dbcfe;}</style></defs><g id="Layer_2" data-name="Layer 2"><g id="Layer_1-2" data-name="Layer 1"><rect class="cls-1" width="49" height="49" rx="10"/><path class="cls-2" d="M24.5,13.54a11,11,0,0,0-11,11c.55,14.57,21.45,14.56,22,0A11,11,0,0,0,24.5,13.54ZM18.08,23.83c.23-4.84,5.28-4.84,5.5,0a.92.92,0,1,1-1.83,0c0-1-.62-1.83-.92-1.83s-.91.86-.91,1.83a.92.92,0,0,1-1.84,0Zm11.61,4.35a7.66,7.66,0,0,1-10.38,0,.92.92,0,0,1-.08-1.29.93.93,0,0,1,1.3-.08,5.81,5.81,0,0,0,7.94,0,.93.93,0,0,1,1.3.11.92.92,0,0,1-.08,1.26ZM30,24.75a.92.92,0,0,1-.92-.92c0-1-.62-1.83-.91-1.83s-.92.86-.92,1.83a.92.92,0,1,1-1.83,0c0-1.73,1.13-3.67,2.75-3.67s2.75,1.94,2.75,3.67A.92.92,0,0,1,30,24.75Z"/></g></g></svg>