<svg xmlns="http://www.w3.org/2000/svg" viewBox="0 0 49 49"><defs><style>.cls-1{fill:#dae6ff;}.cls-2{fill:#6e9cfd;fill-rule:evenodd;}</style></defs><g id="Layer_2" data-name="Layer 2"><g id="Layer_1-2" data-name="Layer 1"><rect class="cls-1" width="49" height="49" rx="10"/><path class="cls-2" d="M29.25,19.92a5,5,0,0,1-4.81,5.15,5,5,0,0,1-4.81-5.15,5,5,0,0,1,4.81-5.15A5,5,0,0,1,29.25,19.92ZM24.44,34.23c-3.92,0-7.27-.66-7.27-3.31s3.33-3.33,7.27-3.33,7.27.66,7.27,3.31S28.39,34.23,24.44,34.23ZM31.31,20A7.35,7.35,0,0,1,30.19,24a.19.19,0,0,0,.12.3,4.87,4.87,0,0,0,.55.06,4.06,4.06,0,0,0,4-3.19A4.3,4.3,0,0,0,31,15.63a3.5,3.5,0,0,0-.8.09.13.13,0,0,0-.1.06.12.12,0,0,0,0,.13A7.41,7.41,0,0,1,31.31,20Zm3.11,6.33a3.14,3.14,0,0,1,2.44,1.59,2.48,2.48,0,0,1,0,2c-.53,1.21-2.22,1.6-2.88,1.7a.21.21,0,0,1-.23-.25,5.46,5.46,0,0,0-3-5.33s0,0,0,0a.05.05,0,0,1,0,0A17,17,0,0,1,34.42,26.34Zm-16.28-2a4.87,4.87,0,0,0,.55-.06.19.19,0,0,0,.12-.3,7.49,7.49,0,0,1,.1-8,.15.15,0,0,0,0-.13.13.13,0,0,0-.1-.06,3.59,3.59,0,0,0-.81-.09,4.3,4.3,0,0,0-3.91,5.49A4.05,4.05,0,0,0,18.14,24.31ZM18.32,26a0,0,0,0,1,0,0,5.46,5.46,0,0,0-3,5.33.21.21,0,0,1-.23.25c-.66-.1-2.35-.49-2.88-1.7a2.48,2.48,0,0,1,0-2,3.12,3.12,0,0,1,2.44-1.59A17,17,0,0,1,18.29,26,.05.05,0,0,1,18.32,26Z"/></g></g></svg>