<svg xmlns="http://www.w3.org/2000/svg" viewBox="0 0 49 49"><defs><style>.cls-1{fill:#ceedff;}.cls-2{fill:#4dbcfe;}</style></defs><g id="Layer_2" data-name="Layer 2"><g id="Layer_1-2" data-name="Layer 1"><rect class="cls-1" width="49" height="49" rx="10"/><path class="cls-2" d="M31.17,13.07H17.83a4.76,4.76,0,0,0-4.76,4.76V31.17a4.76,4.76,0,0,0,4.76,4.76H31.17a4.76,4.76,0,0,0,4.76-4.76V17.83A4.76,4.76,0,0,0,31.17,13.07Zm.95,7.69-8.81,8.82a1.9,1.9,0,0,1-2.7,0h0l-3.73-3.73a.94.94,0,0,1,0-1.35,1,1,0,0,1,1.35,0L22,28.23l8.82-8.82a1,1,0,0,1,1.34,1.35Z"/></g></g></svg>