<svg xmlns="http://www.w3.org/2000/svg" viewBox="0 0 49 49"><defs><style>.cls-1{fill:#dae6ff;}.cls-2{fill:#6e9cfd;}</style></defs><g id="Layer_2" data-name="Layer 2"><g id="Layer_1-2" data-name="Layer 1"><rect class="cls-1" width="49" height="49" rx="10"/><path class="cls-2" d="M27.93,30.24c0-1.38-.94-3.26-2.66-5.3a1,1,0,0,0-.77-.35h0a1,1,0,0,0-.78.36h0c-1.88,2.19-2.8,4.14-2.64,5.63a3.4,3.4,0,0,0,1.45,2.34,3.31,3.31,0,0,0,2,.75A3.44,3.44,0,0,0,27.93,30.24Z"/><path class="cls-2" d="M28.74,16.16c-.72-.61-1.48-1.25-2.25-1.95a2.67,2.67,0,0,0-2.18-.68,2.63,2.63,0,0,0-1.86,1.19,18.84,18.84,0,0,0-2.28,5.91,5.66,5.66,0,0,1-.44-.75A1.84,1.84,0,0,0,17.29,19a1.94,1.94,0,0,0-.58.44,8.3,8.3,0,0,0-2.37,5.89,10,10,0,0,0,7.53,9.83,10.94,10.94,0,0,0,2.55.33,5.17,5.17,0,0,1-3-1.13,5.15,5.15,0,0,1-2.15-3.6c-.21-2,.82-4.39,3.06-7h0a2.85,2.85,0,0,1,2.18-1h0a2.85,2.85,0,0,1,2.17,1c1.41,1.68,3.09,4.16,3.09,6.47a5.27,5.27,0,0,1-4.91,5.25,10.12,10.12,0,0,0,9.8-10.14C34.66,21.19,31.92,18.86,28.74,16.16Z"/></g></g></svg>