<svg xmlns="http://www.w3.org/2000/svg" viewBox="0 0 49 49"><defs><style>.cls-1{fill:#faf3d8;}.cls-2{fill:#ffcf00;}</style></defs><g id="Layer_2" data-name="Layer 2"><g id="Layer_1-2" data-name="Layer 1"><rect class="cls-1" width="49" height="49" rx="10"/><path class="cls-2" d="M19.16,35.51h1.9a1.79,1.79,0,0,0,1.72-1.36,1.78,1.78,0,0,1,3.44,0,1.79,1.79,0,0,0,1.72,1.36h1.9a2.68,2.68,0,0,0,2.67-2.67V29.28H29a.89.89,0,0,1,0-1.78h3.56V18.61a4.46,4.46,0,0,0-4.45-4.45h-.12a1.79,1.79,0,0,0-1.72,1.36,1.78,1.78,0,0,1-3.44,0,1.79,1.79,0,0,0-1.72-1.36h-.12a4.46,4.46,0,0,0-4.45,4.45V27.5h3.56a.89.89,0,0,1,0,1.78H16.49v3.56A2.68,2.68,0,0,0,19.16,35.51Zm4.45-8h1.78a.89.89,0,0,1,0,1.78H23.61a.89.89,0,0,1,0-1.78Z"/></g></g></svg>