<svg xmlns="http://www.w3.org/2000/svg" viewBox="0 0 49 49"><defs><style>.cls-1{fill:#ffe7db;}.cls-2{fill:#fead86;fill-rule:evenodd;}</style></defs><g id="Layer_2" data-name="Layer 2"><g id="Layer_1-2" data-name="Layer 1"><rect class="cls-1" width="49" height="49" rx="10"/><path class="cls-2" d="M34.1,21l.83.88a3.7,3.7,0,0,1,1,2.57,3.77,3.77,0,0,1-1,2.6,0,0,0,0,0,0,0h0L34.1,28a1.88,1.88,0,0,0-.5,1.29v1.25a3.56,3.56,0,0,1-3.44,3.66H29a1.65,1.65,0,0,0-1.21.53l-.83.88a3.3,3.3,0,0,1-2.43,1.07,3.36,3.36,0,0,1-2.44-1.06l-.83-.89A1.67,1.67,0,0,0,20,34.18H18.85a3.56,3.56,0,0,1-3.45-3.66V29.27A2,2,0,0,0,14.9,28l-.82-.86a3.85,3.85,0,0,1,0-5.18L14.9,21a1.88,1.88,0,0,0,.5-1.3V18.49a3.56,3.56,0,0,1,3.45-3.66H20a1.68,1.68,0,0,0,1.22-.54l.82-.87a3.29,3.29,0,0,1,4.87,0l.84.88a1.66,1.66,0,0,0,1.21.54h1.18a3.56,3.56,0,0,1,3.44,3.66v1.25A1.88,1.88,0,0,0,34.1,21ZM21.56,28.69a1,1,0,0,0,.71-.31l5.87-6.25a1.12,1.12,0,0,0,0-1.51,1,1,0,0,0-1.4,0l-5.88,6.25a1.12,1.12,0,0,0,0,1.51A.93.93,0,0,0,21.56,28.69Zm4.88-1.07a1,1,0,1,0,1-1.06A1,1,0,0,0,26.44,27.62Zm-4.87-7.31a1.07,1.07,0,0,1,0,2.13,1.07,1.07,0,0,1,0-2.13Z"/></g></g></svg>