<svg xmlns="http://www.w3.org/2000/svg" viewBox="0 0 49 49"><defs><style>.cls-1{fill:#e7f2ef;}.cls-2{fill:#51a690;}</style></defs><g id="Layer_2" data-name="Layer 2"><g id="Layer_1-2" data-name="Layer 1"><rect class="cls-1" width="49" height="49" rx="10"/><path class="cls-2" d="M17.84,21.07A8.66,8.66,0,0,1,23,18,2.08,2.08,0,1,1,26,18a8.66,8.66,0,0,1,5.13,3.08,8.43,8.43,0,0,0-2.55,3.1,5,5,0,0,0-6.94-1.28,4.87,4.87,0,0,0-1.28,1.28A8.43,8.43,0,0,0,17.84,21.07ZM32,32.84H17a.83.83,0,0,0-.82.84.84.84,0,0,0,.85.82H32a.84.84,0,0,0,.85-.82A.83.83,0,0,0,32,32.84Zm.46-1.67s2-7.29,2-7.92A1.22,1.22,0,0,0,33.34,22h-.09c-1.67,0-3.75,3.22-3.75,5a.84.84,0,0,1-.83.84.85.85,0,0,1-.84-.84,3.33,3.33,0,0,0-6.66,0,.85.85,0,0,1-.84.84A.84.84,0,0,1,19.5,27c0-1.78-2.08-5-3.75-5a1.21,1.21,0,0,0-1.25,1.17v.08c0,.63,2,7.92,2,7.92Z"/></g></g></svg>