<svg xmlns="http://www.w3.org/2000/svg" viewBox="0 0 49 49"><defs><style>.cls-1{fill:#faf3d8;}.cls-2{fill:#ffcf00;}</style></defs><g id="Layer_2" data-name="Layer 2"><g id="Layer_1-2" data-name="Layer 1"><rect class="cls-1" width="49" height="49" rx="10"/><path class="cls-2" d="M35.23,15.07l-17,17a2.61,2.61,0,0,0,1.17.27h2.91a.93.93,0,0,1,.65.27l1.57,1.58a4.58,4.58,0,0,0,7.77-2.56l3.09-14.7A2.75,2.75,0,0,0,35.23,15.07Z"/><path class="cls-2" d="M32.13,13.57,17.46,16.66a4.58,4.58,0,0,0-3.92,5.16,4.67,4.67,0,0,0,1.3,2.62L16.42,26a.92.92,0,0,1,.26.65v2.91A2.8,2.8,0,0,0,17,30.74l17-17A2.73,2.73,0,0,0,32.13,13.57Z"/></g></g></svg>