<svg xmlns="http://www.w3.org/2000/svg" viewBox="0 0 49 49"><defs><style>.cls-1{fill:#e7f2ef;}.cls-2{fill:#51a690;}</style></defs><g id="Layer_2" data-name="Layer 2"><g id="Layer_1-2" data-name="Layer 1"><rect class="cls-1" width="49" height="49" rx="10"/><path class="cls-2" d="M13.49,30.85A3.18,3.18,0,0,0,17.83,32h0l.47-.27a9.55,9.55,0,0,0,3,1.74V34a3.18,3.18,0,0,0,6.36,0v-.54a9.39,9.39,0,0,0,3-1.75l.48.28a3.18,3.18,0,0,0,3.17-5.51h0l-.47-.27a9.69,9.69,0,0,0,0-3.48l.47-.28A3.17,3.17,0,1,0,31.17,17l-.48.27a9.55,9.55,0,0,0-3-1.74V15a3.18,3.18,0,1,0-6.36,0v.54a9.39,9.39,0,0,0-3,1.75L17.83,17a3.18,3.18,0,0,0-3.17,5.51h0l.47.27a9.69,9.69,0,0,0,0,3.48l-.47.27A3.19,3.19,0,0,0,13.49,30.85Zm11-10.59a4.24,4.24,0,1,1-4.24,4.24A4.24,4.24,0,0,1,24.5,20.26Z"/></g></g></svg>