<svg xmlns="http://www.w3.org/2000/svg" viewBox="0 0 49 49"><defs><style>.cls-1{fill:#ffe7db;}.cls-2{fill:#fead86;}</style></defs><g id="Layer_2" data-name="Layer 2"><g id="Layer_1-2" data-name="Layer 1"><rect class="cls-1" width="49" height="49" rx="10"/><path class="cls-2" d="M16.25,37.89a.92.92,0,0,1-.92-.92V19.55A3.67,3.67,0,0,1,19,15.89h6.42a3.66,3.66,0,0,1,3.66,3.66v4.59a3.66,3.66,0,0,1-3.66,3.66H17.17V37A.92.92,0,0,1,16.25,37.89ZM33.67,19.55H30.92v4.59a5.52,5.52,0,0,1-5.5,5.5H25a3.64,3.64,0,0,0,3.16,1.83h5.5a3.66,3.66,0,0,0,3.66-3.67V23.22A3.67,3.67,0,0,0,33.67,19.55Z"/></g></g></svg>