<svg xmlns="http://www.w3.org/2000/svg" viewBox="0 0 49 49"><defs><style>.cls-1{fill:#e7f2ef;}.cls-2{fill:#51a690;}</style></defs><g id="Layer_2" data-name="Layer 2"><g id="Layer_1-2" data-name="Layer 1"><rect class="cls-1" width="49" height="49" rx="10"/><path class="cls-2" d="M31.17,13.07H17.83a4.76,4.76,0,0,0-4.76,4.76V31.17a4.76,4.76,0,0,0,4.76,4.76V33.08a6.67,6.67,0,0,1,13.34,0v2.85a4.76,4.76,0,0,0,4.76-4.76V17.83A4.76,4.76,0,0,0,31.17,13.07ZM24.5,24.5a3.81,3.81,0,1,1,3.81-3.81A3.82,3.82,0,0,1,24.5,24.5Z"/><circle class="cls-2" cx="24.5" cy="20.69" r="1.91"/><path class="cls-2" d="M24.5,28.31a4.77,4.77,0,0,0-4.76,4.77v2.85h9.52V33.08A4.77,4.77,0,0,0,24.5,28.31Z"/></g></g></svg>