<svg xmlns="http://www.w3.org/2000/svg" viewBox="0 0 49 49"><defs><style>.cls-1{fill:#faf3d8;}.cls-2{fill:#ffcf00;}</style></defs><g id="Layer_2" data-name="Layer 2"><g id="Layer_1-2" data-name="Layer 1"><rect class="cls-1" width="49" height="49" rx="10"/><path class="cls-2" d="M20.84,20.68a2.37,2.37,0,0,1-1.5-.57A4.6,4.6,0,0,1,17.85,17c-.23-2.38,1.07-3.78,2.47-3.94a2.54,2.54,0,0,1,1.89.57,4,4,0,0,1,1.31,2.76C23.74,18.62,22.56,20.68,20.84,20.68ZM15.78,26.4a2,2,0,0,1-1.35-.57,4.77,4.77,0,0,1-1.34-3.1c-.21-2.38,1-3.78,2.22-3.94a2.12,2.12,0,0,1,1.7.57,4.14,4.14,0,0,1,1.19,2.76C18.39,24.33,17.22,26.4,15.78,26.4Zm12.37-5.72c-1.72,0-2.89-2.06-2.67-4.28h0a4,4,0,0,1,1.31-2.76,2.54,2.54,0,0,1,1.89-.57c1.4.16,2.69,1.56,2.46,3.94a4.59,4.59,0,0,1-1.48,3.11A2.42,2.42,0,0,1,28.15,20.68Zm5,5.72c-1.79,0-2.69-2.07-2.49-4.28h0a4.15,4.15,0,0,1,1.22-2.77,2.26,2.26,0,0,1,1.76-.56c1.31.15,2.51,1.56,2.3,3.93a4.74,4.74,0,0,1-1.38,3.11,2.12,2.12,0,0,1-1.41.57Zm-4.81,9.53A4.63,4.63,0,0,1,26,35.35a3.16,3.16,0,0,0-3,0c-2.87,1.61-6.22-.16-6.15-4.19,0-4.41,4.3-8.57,7.63-8.57s7.62,4.16,7.62,8.57C32.12,34,30.55,35.93,28.31,35.93Z"/></g></g></svg>