<svg xmlns="http://www.w3.org/2000/svg" viewBox="0 0 49 49"><defs><style>.cls-1{fill:#ffe7db;}.cls-2{fill:#fead86;}</style></defs><g id="Layer_2" data-name="Layer 2"><g id="Layer_1-2" data-name="Layer 1"><rect class="cls-1" width="49" height="49" rx="10"/><path class="cls-2" d="M13.28,21.2a2.35,2.35,0,0,1,.15-2.46A4.43,4.43,0,0,1,15,17.3l7.18-3.74a4.94,4.94,0,0,1,4.58,0L34,17.3a4.52,4.52,0,0,1,1.6,1.44,2.35,2.35,0,0,1,.15,2.46,2.59,2.59,0,0,1-2.32,1.38H15.6A2.59,2.59,0,0,1,13.28,21.2ZM35,34.08a1.91,1.91,0,0,0-1.92-1.91V24.5H31.21v7.67H28.33V24.5H26.42v7.67H22.58V24.5H20.67v7.67H17.79V24.5H15.88v7.67A1.91,1.91,0,0,0,14,34.08,1,1,0,1,0,14,36H35a1,1,0,0,0,0-1.92Z"/></g></g></svg>