<svg xmlns="http://www.w3.org/2000/svg" viewBox="0 0 49 49"><defs><style>.cls-1{fill:#dae6ff;}.cls-2{fill:#6e9cfd;}</style></defs><g id="Layer_2" data-name="Layer 2"><g id="Layer_1-2" data-name="Layer 1"><rect class="cls-1" width="49" height="49" rx="10"/><path class="cls-2" d="M27.33,13.16H21.66a4.72,4.72,0,0,0-4.72,4.72v10.4H32.06V17.88A4.73,4.73,0,0,0,27.33,13.16ZM26.64,24.8a2.91,2.91,0,0,1-1.77.65v.62h-.68v-.61a2.91,2.91,0,0,1-1.8-.61,1.77,1.77,0,0,1-.66-1.44h1.4a.85.85,0,0,0,.31.61,1.3,1.3,0,0,0,.75.3V22.5l-.52-.12a2.57,2.57,0,0,1-1.34-.71,1.81,1.81,0,0,1-.46-1.26A1.89,1.89,0,0,1,22.48,19a2.82,2.82,0,0,1,1.71-.64v-.66h.68v.66A2.77,2.77,0,0,1,26.5,19a1.86,1.86,0,0,1,.63,1.4H25.76a.83.83,0,0,0-.25-.58,1.16,1.16,0,0,0-.64-.3v1.74l.52.11c1.25.26,1.87.92,1.87,2A1.88,1.88,0,0,1,26.64,24.8Z"/><path class="cls-2" d="M16.94,31.11a4.73,4.73,0,0,0,4.72,4.73h5.67a4.73,4.73,0,0,0,4.73-4.73v-.94H16.94Zm7.56,1a.95.95,0,0,1,0,1.89.95.95,0,1,1,0-1.89Z"/><path class="cls-2" d="M25.88,23.47a.74.74,0,0,1-.27.6,1.23,1.23,0,0,1-.74.25v-1.7C25.54,22.75,25.88,23,25.88,23.47Z"/><path class="cls-2" d="M24.19,19.48v1.61a1.35,1.35,0,0,1-.67-.3.64.64,0,0,1-.23-.51.68.68,0,0,1,.25-.55A1.06,1.06,0,0,1,24.19,19.48Z"/></g></g></svg>