<svg xmlns="http://www.w3.org/2000/svg" viewBox="0 0 49 49"><defs><style>.cls-1{fill:#dae6ff;}.cls-2{fill:#6e9cfd;}</style></defs><g id="Layer_2" data-name="Layer 2"><g id="Layer_1-2" data-name="Layer 1"><rect class="cls-1" width="49" height="49" rx="10"/><path class="cls-2" d="M31.81,23.13H36V28H31.81a2.46,2.46,0,0,1-1.74-4.19A2.48,2.48,0,0,1,31.81,23.13Z"/><path class="cls-2" d="M36,20.5v.92H31.84a4.19,4.19,0,0,0-2.95,1.22,4.17,4.17,0,0,0,2.95,7.11H36v2.64a2.36,2.36,0,0,1-2.35,2.36H16.44A3.44,3.44,0,0,1,13,31.31V18.08a3.83,3.83,0,0,1,3-3.73,4.14,4.14,0,0,1,.87-.1H31.5a1.24,1.24,0,0,1,.87,2.11,1.19,1.19,0,0,1-.87.36H16.07a.89.89,0,0,0-.61.25.87.87,0,0,0-.25.61.85.85,0,0,0,.86.85H33.93A2.07,2.07,0,0,1,36,20.5Z"/><path class="cls-2" d="M36,23.13V28H31.81a2.46,2.46,0,0,1-1.74-4.19,2.48,2.48,0,0,1,1.74-.72Z"/><path class="cls-2" d="M36,23.13V28H31.81a2.46,2.46,0,0,1-1.74-4.19,2.48,2.48,0,0,1,1.74-.72Z"/></g></g></svg>