<svg xmlns="http://www.w3.org/2000/svg" viewBox="0 0 49 49"><defs><style>.cls-1{fill:#dae6ff;}.cls-2{fill:#6e9cfd;}</style></defs><g id="Layer_2" data-name="Layer 2"><g id="Layer_1-2" data-name="Layer 1"><rect class="cls-1" width="49" height="49" rx="10"/><path class="cls-2" d="M31.89,18.64c0,3.19-4.17,7.17-6.24,8.83a1.84,1.84,0,0,1-2.3,0c-2.07-1.66-6.24-5.64-6.24-8.83a3.9,3.9,0,0,1,3.7-4.07,3.89,3.89,0,0,1,3.69,4.07,3.89,3.89,0,0,1,3.69-4.07A3.9,3.9,0,0,1,31.89,18.64Z"/><path class="cls-2" d="M37,27.31l-2.74,5.06a5.88,5.88,0,0,1-3.32,2.7l-2.2.72a2,2,0,0,1-2.66-1.1l-.73-2.23A2,2,0,0,1,26.82,30l4-1.33a1.13,1.13,0,0,1,1.47.62.71.71,0,0,1,0,.21,1.18,1.18,0,0,1-.74,1.1l-2.07,1a.49.49,0,0,0-.27.65h0a.55.55,0,0,0,.71.19l2.11-1a2.1,2.1,0,0,0,1.25-2.47,2.24,2.24,0,0,0-.13-.27l1.28-2.27a1.57,1.57,0,0,1,1.87-.7A1.28,1.28,0,0,1,37,27.3Z"/><path class="cls-2" d="M12,27.37a1.26,1.26,0,0,1,.62-1.61,1.6,1.6,0,0,1,1.88.68l1.3,2.25a1.59,1.59,0,0,0-.12.27A2.11,2.11,0,0,0,17,31.42l2.12,1a.54.54,0,0,0,.71-.19h0a.5.5,0,0,0-.28-.65l-2.08-.94a1.2,1.2,0,0,1-.76-1.09,1.7,1.7,0,0,1,0-.22,1.14,1.14,0,0,1,1.46-.63l4,1.28a2,2,0,0,1,1.5,2.44L23,34.62a2,2,0,0,1-2.64,1.13l-2.21-.69a5.89,5.89,0,0,1-3.36-2.66l-2.8-5Z"/></g></g></svg>