<svg xmlns="http://www.w3.org/2000/svg" viewBox="0 0 49 49"><defs><style>.cls-1{fill:#ffe7db;}.cls-2{fill:#fead86;}</style></defs><g id="Layer_2" data-name="Layer 2"><g id="Layer_1-2" data-name="Layer 1"><rect class="cls-1" width="49" height="49" rx="10"/><path class="cls-2" d="M31.74,13.65l-6.89-2.29a1.05,1.05,0,0,0-.7,0l-6.89,2.29a5.5,5.5,0,0,0-3.76,5.22V24.5c0,8.32,10.12,12.91,10.55,13.11a1.17,1.17,0,0,0,.9,0c.43-.2,10.55-4.79,10.55-13.11V18.87A5.5,5.5,0,0,0,31.74,13.65Zm-2,8.34L25,26.69a2.08,2.08,0,0,1-1.47.61h0A2.06,2.06,0,0,1,22,26.64L19.47,24A1.1,1.1,0,0,1,21,22.38a.39.39,0,0,1,.08.1l2.47,2.57,4.61-4.62A1.1,1.1,0,0,1,29.69,22Z"/></g></g></svg>