<svg xmlns="http://www.w3.org/2000/svg" viewBox="0 0 49 49"><defs><style>.cls-1{fill:#faf3d8;}.cls-2{fill:#ffcf00;}</style></defs><g id="Layer_2" data-name="Layer 2"><g id="Layer_1-2" data-name="Layer 1"><rect class="cls-1" width="49" height="49" rx="10"/><path class="cls-2" d="M34.58,28.17a.91.91,0,0,0-.91.91v1.84a2.75,2.75,0,0,1-2.75,2.75H29.08a.92.92,0,0,0,0,1.83h1.84a4.58,4.58,0,0,0,4.58-4.58V29.08A.92.92,0,0,0,34.58,28.17Z"/><path class="cls-2" d="M14.42,20.83a.91.91,0,0,0,.91-.91V18.08a2.75,2.75,0,0,1,2.75-2.75h1.84a.92.92,0,0,0,0-1.83H18.08a4.58,4.58,0,0,0-4.58,4.58v1.84A.92.92,0,0,0,14.42,20.83Z"/><path class="cls-2" d="M19.92,33.67H18.08a2.75,2.75,0,0,1-2.75-2.75V29.08a.92.92,0,0,0-1.83,0v1.84a4.58,4.58,0,0,0,4.58,4.58h1.84a.92.92,0,0,0,0-1.83Z"/><path class="cls-2" d="M30.92,13.5H29.08a.92.92,0,0,0,0,1.83h1.84a2.75,2.75,0,0,1,2.75,2.75v1.84a.92.92,0,0,0,1.83,0V18.08A4.58,4.58,0,0,0,30.92,13.5Z"/><circle class="cls-2" cx="24.5" cy="19.92" r="3.67"/><path class="cls-2" d="M23.58,25.42a5.51,5.51,0,0,0-5.5,5.5.92.92,0,0,0,.92.91H30a.92.92,0,0,0,.92-.91,5.51,5.51,0,0,0-5.5-5.5Z"/></g></g></svg>