<svg xmlns="http://www.w3.org/2000/svg" viewBox="0 0 49 49"><defs><style>.cls-1{fill:#e7f2ef;}.cls-2{fill:#51a690;}</style></defs><g id="Layer_2" data-name="Layer 2"><g id="Layer_1-2" data-name="Layer 1"><rect class="cls-1" width="49" height="49" rx="10"/><path class="cls-2" d="M28.4,16.68c0,2.07-2.71,4.65-4,5.73a1.22,1.22,0,0,1-1.49,0c-1.35-1.08-4.05-3.66-4.05-5.73A2.53,2.53,0,0,1,21.21,14a2.52,2.52,0,0,1,2.39,2.64,2.41,2.41,0,1,1,4.8,0Zm7,8.63-7.38,7A10.34,10.34,0,0,1,21,35H16.89a3.6,3.6,0,0,1-3.83-3.31V27.51a3.61,3.61,0,0,1,3.83-3.32h7.47A2,2,0,0,1,26.48,26a1.74,1.74,0,0,1-.05.39,2.09,2.09,0,0,1-1.86,1.43l-4,.48a.87.87,0,0,0-.81.94h0a.94.94,0,0,0,1.08.7l4.08-.49A3.73,3.73,0,0,0,28.4,26a3.07,3.07,0,0,0-.07-.53l3.4-3.1a2.79,2.79,0,0,1,3.52-.13,2.25,2.25,0,0,1,.18,3Z"/></g></g></svg>