<svg xmlns="http://www.w3.org/2000/svg" viewBox="0 0 49 49"><defs><style>.cls-1{fill:#ffe7db;}.cls-2{fill:#fead86;}</style></defs><g id="Layer_2" data-name="Layer 2"><g id="Layer_1-2" data-name="Layer 1"><rect class="cls-1" width="49" height="49" rx="10"/><path class="cls-2" d="M32.77,25.81a2.7,2.7,0,0,0-1.9.77L29.79,26a5.46,5.46,0,0,0-6.87-6.81l-.64-1.15a2.73,2.73,0,1,0-2,.89,1.72,1.72,0,0,0,.39,0l.63,1.14a5.43,5.43,0,0,0-1.2,7.51l-2.66,2.55a2.8,2.8,0,1,0,1.33,1.25l2.6-2.5A5.44,5.44,0,0,0,29,27.66l1.09.55a1.84,1.84,0,0,0,0,.33,2.74,2.74,0,1,0,2.74-2.73Z"/></g></g></svg>