<svg xmlns="http://www.w3.org/2000/svg" viewBox="0 0 49 49"><defs><style>.cls-1{fill:#dae6ff;}.cls-2{fill:#6e9cfd;}</style></defs><g id="Layer_2" data-name="Layer 2"><g id="Layer_1-2" data-name="Layer 1"><rect class="cls-1" width="49" height="49" rx="10"/><path class="cls-2" d="M28.14,25.41a4.56,4.56,0,0,1-6.37.91,4.9,4.9,0,0,1-.91-.91,4.49,4.49,0,0,1-6.3.93l-.06,0v4.56a4.55,4.55,0,0,0,4.55,4.55H30a4.55,4.55,0,0,0,4.55-4.55V26.29a4.51,4.51,0,0,1-6.32-.82Z"/><path class="cls-2" d="M33.32,16.44a3.62,3.62,0,0,0-3.55-2.85h-.72v2.73a.91.91,0,0,1-1.82,0V13.59H21.77v2.73a.91.91,0,0,1-1.82,0V13.59h-.72a3.62,3.62,0,0,0-3.55,2.85l-1.16,5.24,0,1a2.73,2.73,0,1,0,5.45,0,.91.91,0,0,1,1.82,0,2.73,2.73,0,0,0,5.46,0,.91.91,0,0,1,1.82,0,2.73,2.73,0,1,0,5.45,0v-.81Z"/></g></g></svg>